<svg width="33" height="33" viewBox="0 0 33 33" fill="none" xmlns="http://www.w3.org/2000/svg">
<path d="M16.5 30.25C24.0939 30.25 30.25 24.0939 30.25 16.5C30.25 8.90608 24.0939 2.75 16.5 2.75C8.90608 2.75 2.75 8.90608 2.75 16.5C2.75 24.0939 8.90608 30.25 16.5 30.25Z" stroke="white" stroke-width="2" stroke-linecap="round" stroke-linejoin="round"/>
<path d="M22 11H13.75C13.0207 11 12.3212 11.2897 11.8055 11.8055C11.2897 12.3212 11 13.0207 11 13.75C11 14.4793 11.2897 15.1788 11.8055 15.6945C12.3212 16.2103 13.0207 16.5 13.75 16.5H19.25C19.9793 16.5 20.6788 16.7897 21.1945 17.3055C21.7103 17.8212 22 18.5207 22 19.25C22 19.9793 21.7103 20.6788 21.1945 21.1945C20.6788 21.7103 19.9793 22 19.25 22H11" stroke="white" stroke-width="2" stroke-linecap="round" stroke-linejoin="round"/>
<path d="M16.5 24.75V8.25" stroke="white" stroke-width="2" stroke-linecap="round" stroke-linejoin="round"/>
</svg>
